<svg data-v-423bf9ae="" xmlns="http://www.w3.org/2000/svg" viewBox="0 0 386.46650789496823 194" class="iconAboveSlogan"><!----><!----><!----><g data-v-423bf9ae="" id="ed063fd3-8bb0-4006-88ad-f881b86864e9" fill="#FFFFFF" transform="matrix(4.238036155700684,0,0,4.238036155700684,-1.737595796585083,100.23468017578125)"><path d="M2.27 3.57L2.27 10.50L0.56 10.50L0.56 3.57ZM0.41 1.65C0.41 2.98 2.42 2.98 2.42 1.65C2.42 0.32 0.41 0.32 0.41 1.65ZM10.11 10.50L10.11 6.80C10.11 5.89 10.68 5.10 11.61 5.10C12.53 5.10 12.91 5.87 12.91 6.78L12.91 10.50L14.62 10.50L14.62 6.78C14.62 4.70 13.65 3.50 11.69 3.50C10.79 3.50 10.00 3.78 9.38 4.76C8.99 3.81 8.16 3.47 7.34 3.47C6.68 3.47 5.88 3.72 5.52 4.42L5.39 3.58L3.81 3.58L3.81 10.50L5.52 10.50L5.52 6.80C5.52 5.89 6.06 5.07 6.99 5.07C7.92 5.07 8.40 5.89 8.40 6.80L8.40 10.50ZM16.35 0.70L16.35 10.50L18.06 10.50L18.06 6.97C18.06 5.94 18.76 5.08 19.77 5.08C20.68 5.08 21.34 5.61 21.34 6.87L21.34 10.50L23.04 10.50L23.04 6.86C23.04 4.83 22.18 3.50 20.22 3.50C19.43 3.50 18.68 3.74 18.06 4.54L18.06 0.70ZM24.39 3.60L24.39 7.22C24.39 9.37 25.59 10.61 27.24 10.61C28.21 10.61 28.87 10.28 29.58 9.58L29.69 10.51L31.22 10.51L31.22 3.60L29.53 3.60L29.53 7.13C29.53 8.18 28.81 9.06 27.76 9.06C26.67 9.06 26.10 8.26 26.10 7.21L26.10 3.60ZM39.52 10.50L39.52 6.87C39.52 4.70 38.22 3.49 36.60 3.49C35.73 3.49 35.03 3.84 34.33 4.52L34.22 3.58L32.69 3.58L32.69 10.50L34.38 10.50L34.38 6.97C34.38 5.92 35.10 5.04 36.15 5.04C37.24 5.04 37.81 5.84 37.81 6.89L37.81 10.50ZM45.72 3.77C45.25 3.44 44.69 3.37 44.14 3.37C42.21 3.37 40.64 4.72 40.64 6.87C40.64 9.03 41.99 10.35 44.14 10.35C45.00 10.35 45.89 10.78 45.89 11.73C45.89 12.68 45.12 13.22 44.14 13.22C43.16 13.22 42.34 12.63 42.34 11.73L40.64 11.73C40.64 13.59 42.14 14.81 44.14 14.81C46.14 14.81 47.60 13.64 47.60 11.73C47.60 10.85 47.32 10.02 46.17 9.45C47.31 8.93 47.63 7.73 47.63 6.87C47.63 6.12 47.43 5.43 46.90 4.83L47.67 3.85L46.41 2.90ZM44.14 4.93C45.12 4.93 45.93 5.68 45.93 6.87C45.93 8.06 45.12 8.79 44.14 8.79C43.15 8.79 42.34 8.08 42.34 6.87C42.34 5.67 43.15 4.93 44.14 4.93ZM48.72 3.60L48.72 10.50L50.43 10.50L50.43 6.86C50.43 5.59 51.25 5.11 52.15 5.11C52.71 5.11 53.03 5.26 53.38 5.56L54.15 4.07C53.77 3.70 53.09 3.42 52.37 3.42C51.67 3.42 50.96 3.54 50.43 4.40L50.30 3.60ZM60.30 3.60L59.04 6.62L58.32 8.53L57.67 6.58L56.62 3.60L54.63 3.60L57.39 10.39L56.10 13.38L57.97 13.38L62.19 3.60ZM63.04 9.62C63.04 10.95 65.06 10.95 65.06 9.62C65.06 8.29 63.04 8.29 63.04 9.62ZM72.23 4.55C71.83 3.86 70.95 3.43 70.03 3.43C68.01 3.42 66.43 4.66 66.43 7.04C66.43 9.46 67.94 10.72 69.99 10.71C70.76 10.70 71.83 10.30 72.23 9.49L72.31 10.50L73.92 10.50L73.92 3.60L72.28 3.60ZM70.18 4.96C72.87 4.96 72.87 9.14 70.18 9.14C69.05 9.14 68.14 8.36 68.14 7.04C68.14 5.73 69.05 4.96 70.18 4.96ZM79.18 9.02C78.02 9.02 77.22 8.13 77.22 7.06C77.22 5.98 77.95 5.10 79.18 5.10C80.42 5.10 81.14 5.98 81.14 7.06C81.14 8.13 80.35 9.02 79.18 9.02ZM77.07 13.38L77.07 9.69C77.56 10.44 78.64 10.67 79.37 10.67C81.58 10.67 82.85 9.07 82.85 7.06C82.85 5.03 81.44 3.44 79.31 3.44C78.53 3.44 77.60 3.78 77.07 4.55L76.96 3.60L75.36 3.60L75.36 13.38ZM87.93 9.02C86.77 9.02 85.97 8.13 85.97 7.06C85.97 5.98 86.70 5.10 87.93 5.10C89.17 5.10 89.89 5.98 89.89 7.06C89.89 8.13 89.10 9.02 87.93 9.02ZM85.82 13.38L85.82 9.69C86.31 10.44 87.39 10.67 88.12 10.67C90.33 10.67 91.60 9.07 91.60 7.06C91.60 5.03 90.19 3.44 88.06 3.44C87.28 3.44 86.35 3.78 85.82 4.55L85.71 3.60L84.11 3.60L84.11 13.38Z"></path></g><!----><g data-v-423bf9ae="" id="9d394a14-2c36-4f18-bbab-ae82f9afd176" transform="matrix(1.4811961650848389,0,0,1.4811961650848389,118.73428344726562,-28.49799346923828)" stroke="none" fill="#9BD92B"><path d="M90.9 74.8c-.5-.3-1.1-.2-1.4.3l-2.1 3.3H12.8L11.1 75c-.2-.5-.8-.7-1.3-.4-.5.2-.7.8-.4 1.3l2 4c.2.3.5.6.9.6H88c.3 0 .7-.2.8-.5l2.4-3.7c.3-.6.2-1.2-.3-1.5zM64.5 21.6s.2.1.5.2c.9.4 2.6 1.5 2.2 4.1-.2 1-.7 1.8-1.2 2.6-.1.2-.2.3-.4.5-1.4 1.9-3.1 4.1.8 8.1.2.2.5.3.7.3.3 0 .5-.1.7-.3.4-.4.4-1 0-1.4-.4-.4-.7-.8-1-1.1-1-1.4-1-2.2-.5-3.2.2-.4.5-.8.8-1.2.8-1 1.7-2.2 2-3.9.7-4-2.4-6-4.1-6.5-.5-.2-1.1.1-1.2.7-.1.4.2 1 .7 1.1z"></path><path d="M68.1 31.1c-.3.5-.1 1.1.3 1.4.1 0 .2.1.4.3.7.6 2.1 2.2 1.1 4.5-.4.9-1.1 1.6-1.8 2.2-.2.1-.3.3-.5.4-1.9 1.5-4 3.2-1.3 8 .2.3.5.5.9.5.2 0 .3 0 .5-.1.5-.3.7-.9.4-1.4-.3-.5-.5-.9-.7-1.3-.7-1.6-.4-2.4.4-3.2.3-.3.7-.6 1.1-.9 1-.8 2.2-1.7 2.9-3.3 1.7-3.7-.7-6.4-2.2-7.4-.6-.4-1.2-.2-1.5.3zM12.9 69.2c-.1.6-.1 1.2.2 1.9-.1.1-.2.3-.3.5-.2.4-.9 1.3-.3 2.4.8 1.5 3.9 3.3 21.1 3.3 17.1 0 20.2-1.7 21-3.3.6-1.1-.1-2-.4-2.4-.3-.6-.7-1-1-1.3.1-.3.2-.5.2-.8.6-.2 1.1-.4 1.5-.6.7.4 1.5.7 2.3 1l-.9 4.6c-.1.3 0 .6.2.8.2.2.5.4.8.4h20.1c.3 0 .6-.1.8-.4.2-.2.3-.5.2-.8l-.9-4.5c6.1-2.3 11.9-7.3 12.3-18 0-.3-.1-.5-.3-.7-.2-.2-.4-.3-.7-.3H46c-.3 0-.5.1-.7.3-.2.2-.3.5-.3.7 0 1.1.2 2.2.3 3.2-3.4-1.2-7.4-1.9-11.8-1.9C20.5 53.2 11 59 11 67c0 .7.3 1.7 1.9 2.2zM22.3 57l2.4 4.2c.2.3.5.5.9.5.2 0 .3 0 .5-.1.5-.3.6-.9.4-1.4l-2.2-3.9c2.1-.6 4.4-1 6.9-1.1l2.6 4.5c.2.3.5.5.9.5.2 0 .3 0 .5-.1.5-.3.6-.9.4-1.4l-2-3.6c2.7 0 5.2.3 7.5.8l2.7 4.8c.2.3.5.5.9.5.2 0 .3 0 .5-.1.5-.3.6-.9.4-1.4l-1.8-3.1c.7.2 1.4.5 2.1.8.4.2.8.3 1.2.5.5.2.9.5 1.3.7 3.2 1.9 5.2 4.3 5.6 7.2 0 .3.1.7.1 1 0 .1 0 .1-.1.2-.1.2-.5.3-1.1.5h-.1c-.2 0-.4.1-.7.1-.8.1-1.9.2-3.4.2-1.6 0-3.4-.1-5.6-.1-2.8-.1-5.9-.2-9.5-.2-3.3 0-6.4.1-9.1.2-1.6 0-3 .1-4.2.1h-1.4c-1.8 0-3.2-.1-4.1-.2-.3 0-.5-.1-.7-.1-.6-.1-1-.4-1-.5-.1-4.4 3.5-8 9.2-10zm46.5 12.6h-2.7c-4-.3-7.3-1.2-10.1-2.6v-.1c0-3.7-2.1-7-5.7-9.4h36.5c-2.7 9.1-11 11.7-18 12.1zM47.1 52.8h40.6c-.1 1-.2 1.9-.4 2.7H47.5c-.2-.8-.3-1.7-.4-2.7zM24.9 71.9l-3.4-2.1c1 0 2 0 3.1-.1 1.1 0 2.3-.1 3.5-.1l-3.2 2.3zM15 70.5c-.2-.2-.2-.6-.2-.9.6.1 1.4.1 2.3.2h.5l.9.5 1.3.8h-2.9c-1 0-1.6-.2-1.9-.6zm16.7-.9h3.9l.2.2 2.2 1.6-8.8-.1 2.5-1.7zm7.4 0c1.4 0 2.7.1 3.9.1 1.1 0 2.2.1 3.2.1L42.5 72l-3.4-2.4zm11.7.9c-.6.6-1.6 1-2.9 1h-.6l2.5-1.5c.1 0 .1-.1.1-.1.5 0 .9 0 1.3-.1 0 .2-.2.5-.4.7zm-17.3 4.8c-3.8 0-6.9-.1-9.4-.2-9-.5-9.8-1.8-9.9-1.9 0-.1.1-.3.2-.3l.1-.1c.6.3 1.4.5 2.4.5s3.6 0 6.2.1l1.3.8c.2-.2.4-.2.6-.2.2 0 .4-.1.6-.2l.9-.7 14.5.3 1 .7c.2.1.4.2.6.2.2 0 .4 0 .5-.1l1.1-.6h3.9c1.8 0 3.2-.5 4.2-1.5.1.1.2.3.3.5 0 .1.1.2.2.3.1.1.2.3.2.3-.3.1-1.6 2.1-19.5 2.1zm42.7-1.7H58.6l.6-3.1c2 .6 4.3 1 6.7 1.2h2.9c2-.1 4.3-.4 6.7-1.1l.7 3z"></path></g><!----><g data-v-423bf9ae="" id="f5409233-a6ff-4934-bd56-c89cda3df8f7" fill="#FFFFFF" transform="matrix(1.8800588846206665,0,0,1.8800588846206665,49.01346206665039,195.8824920654297)"><path d="M14.80 0.70L12.73 0.70L10.49 7.77L8.04 0.70L6.83 0.70L4.45 7.77L2.14 0.70L0.07 0.70L3.67 10.50L5.24 10.50L6.43 7.45L7.45 4.33L8.48 7.42L9.70 10.50L11.27 10.50ZM15.51 0.70L15.51 10.50L17.22 10.50L17.22 6.97C17.22 5.94 17.92 5.08 18.93 5.08C19.84 5.08 20.50 5.61 20.50 6.87L20.50 10.50L22.20 10.50L22.20 6.86C22.20 4.83 21.34 3.50 19.38 3.50C18.59 3.50 17.84 3.74 17.22 4.54L17.22 0.70ZM29.06 4.55C28.67 3.86 27.79 3.43 26.87 3.43C24.85 3.42 23.27 4.66 23.27 7.04C23.27 9.46 24.78 10.72 26.82 10.71C27.59 10.70 28.67 10.30 29.06 9.49L29.15 10.50L30.76 10.50L30.76 3.60L29.12 3.60ZM27.02 4.96C29.71 4.96 29.71 9.14 27.02 9.14C25.89 9.14 24.98 8.36 24.98 7.04C24.98 5.73 25.89 4.96 27.02 4.96ZM32.90 1.83L32.90 3.61L31.61 3.61L31.61 5.08L32.90 5.08L32.90 8.06C32.90 9.79 33.88 10.64 35.38 10.58C35.90 10.57 36.30 10.49 36.79 10.29L36.32 8.83C36.06 8.96 35.76 9.04 35.49 9.04C34.96 9.04 34.59 8.72 34.59 8.06L34.59 5.08L36.51 5.08L36.51 3.61L34.61 3.61L34.61 1.65ZM46.07 4.31C45.28 3.61 44.46 3.40 43.39 3.40C42.13 3.40 40.47 3.96 40.47 5.56C40.47 7.13 42.03 7.60 43.33 7.70C44.31 7.76 44.70 7.95 44.70 8.43C44.70 8.93 44.10 9.27 43.46 9.25C42.69 9.24 41.57 8.83 41.08 8.29L40.24 9.51C41.24 10.56 42.34 10.74 43.43 10.74C45.40 10.74 46.40 9.69 46.40 8.47C46.40 6.64 44.74 6.34 43.44 6.26C42.56 6.20 42.15 5.95 42.15 5.50C42.15 5.07 42.60 4.82 43.41 4.82C44.07 4.82 44.63 4.97 45.12 5.43ZM47.49 0.70L47.49 10.50L49.20 10.50L49.20 6.97C49.20 5.94 49.90 5.08 50.90 5.08C51.81 5.08 52.47 5.61 52.47 6.87L52.47 10.50L54.18 10.50L54.18 6.86C54.18 4.83 53.31 3.50 51.35 3.50C50.57 3.50 49.81 3.74 49.20 4.54L49.20 0.70ZM58.87 3.46C56.67 3.46 55.30 5.08 55.30 7.06C55.30 9.04 56.64 10.65 58.88 10.65C61.12 10.65 62.48 9.04 62.48 7.06C62.48 5.08 61.07 3.46 58.87 3.46ZM58.88 5.01C60.03 5.01 60.76 6.02 60.76 7.06C60.76 8.11 60.13 9.09 58.88 9.09C57.64 9.09 57.01 8.11 57.01 7.06C57.01 6.02 57.65 5.01 58.88 5.01ZM63.70 3.60L63.70 7.22C63.70 9.37 64.90 10.61 66.56 10.61C67.52 10.61 68.18 10.28 68.89 9.58L69.01 10.51L70.53 10.51L70.53 3.60L68.84 3.60L68.84 7.13C68.84 8.18 68.12 9.06 67.07 9.06C65.98 9.06 65.41 8.26 65.41 7.21L65.41 3.60ZM72.04 0.71L72.04 10.50L73.74 10.50L73.74 0.71ZM78.58 5.03C79.66 5.03 80.58 5.84 80.58 7.04C80.58 8.29 79.66 9.07 78.58 9.07C77.49 9.07 76.62 8.25 76.62 7.04C76.62 5.80 77.49 5.03 78.58 5.03ZM80.70 0.71L80.70 4.54C80.29 3.82 79.16 3.43 78.43 3.43C76.41 3.43 74.91 4.66 74.91 7.04C74.91 9.31 76.44 10.65 78.47 10.65C79.31 10.65 80.16 10.37 80.70 9.55L80.81 10.50L82.40 10.50L82.40 0.71ZM91.56 3.58L90.06 8.78L88.48 3.58L86.58 3.58L89.00 10.53L90.99 10.53L91.70 8.48L92.32 6.17L92.93 8.48L93.65 10.53L95.63 10.53L98.04 3.58L96.15 3.58L94.57 8.78L93.06 3.58ZM106.33 7.66C106.60 4.82 105.15 3.39 102.84 3.39C100.60 3.39 99.18 4.90 99.18 7C99.18 9.21 100.59 10.68 102.97 10.68C104.02 10.68 105.21 10.32 105.94 9.56L104.85 8.48C104.45 8.89 103.63 9.13 103.00 9.13C101.79 9.13 101.05 8.51 100.94 7.66ZM100.97 6.24C101.22 5.35 101.98 4.90 102.90 4.90C103.88 4.90 104.58 5.35 104.69 6.24ZM116.77 10.50L116.77 6.80C116.77 5.89 117.35 5.10 118.27 5.10C119.20 5.10 119.57 5.87 119.57 6.78L119.57 10.50L121.28 10.50L121.28 6.78C121.28 4.70 120.32 3.50 118.36 3.50C117.46 3.50 116.66 3.78 116.05 4.76C115.65 3.81 114.83 3.47 114.00 3.47C113.34 3.47 112.55 3.72 112.18 4.42L112.06 3.58L110.47 3.58L110.47 10.50L112.18 10.50L112.18 6.80C112.18 5.89 112.73 5.07 113.65 5.07C114.59 5.07 115.07 5.89 115.07 6.80L115.07 10.50ZM128.44 4.55C128.04 3.86 127.16 3.43 126.24 3.43C124.22 3.42 122.64 4.66 122.64 7.04C122.64 9.46 124.15 10.72 126.20 10.71C126.97 10.70 128.04 10.30 128.44 9.49L128.52 10.50L130.13 10.50L130.13 3.60L128.49 3.60ZM126.39 4.96C129.08 4.96 129.08 9.14 126.39 9.14C125.26 9.14 124.35 8.36 124.35 7.04C124.35 5.73 125.26 4.96 126.39 4.96ZM131.53 0.71L131.53 10.50L133.24 10.50L133.24 7.38L135.94 10.50L138.00 10.50L138.00 10.37L134.79 6.85L137.61 3.70L137.61 3.60L135.56 3.60L133.24 6.37L133.24 0.71ZM145.63 7.66C145.89 4.82 144.45 3.39 142.14 3.39C139.90 3.39 138.47 4.90 138.47 7C138.47 9.21 139.89 10.68 142.27 10.68C143.32 10.68 144.51 10.32 145.24 9.56L144.14 8.48C143.75 8.89 142.93 9.13 142.30 9.13C141.09 9.13 140.35 8.51 140.24 7.66ZM140.27 6.24C140.52 5.35 141.27 4.90 142.20 4.90C143.18 4.90 143.88 5.35 143.99 6.24ZM148.97 9.45C148.97 10.92 151.21 10.92 151.21 9.45C151.21 7.97 148.97 7.97 148.97 9.45ZM148.62 3.64C148.64 2.76 149.56 2.25 150.46 2.25C151.33 2.25 152.32 2.51 152.32 3.58C152.32 4.42 151.47 4.54 150.72 4.93C149.98 5.32 149.20 5.75 149.18 7.67L149.18 7.76L151.03 7.76L151.03 7.69C151.03 7.03 151.19 6.64 151.56 6.38C152.38 5.84 154.24 5.63 154.24 3.60C154.28 1.50 152.46 0.64 150.49 0.64C148.51 0.64 146.76 1.57 146.75 3.64Z"></path></g></svg>