<svg data-v-423bf9ae="" xmlns="http://www.w3.org/2000/svg" viewBox="0 0 386.46650789496823 60" class="font"><!----><!----><!----><g data-v-423bf9ae="" id="c70bb8ec-00e0-4b07-bef8-b88411c323a1" fill="white" transform="matrix(4.238036155700684,0,0,4.238036155700684,-1.737595796585083,-2.7653181552886963)"><path d="M2.27 3.57L2.27 10.50L0.56 10.50L0.56 3.57ZM0.41 1.65C0.41 2.98 2.42 2.98 2.42 1.65C2.42 0.32 0.41 0.32 0.41 1.65ZM10.11 10.50L10.11 6.80C10.11 5.89 10.68 5.10 11.61 5.10C12.53 5.10 12.91 5.87 12.91 6.78L12.91 10.50L14.62 10.50L14.62 6.78C14.62 4.70 13.65 3.50 11.69 3.50C10.79 3.50 10.00 3.78 9.38 4.76C8.99 3.81 8.16 3.47 7.34 3.47C6.68 3.47 5.88 3.72 5.52 4.42L5.39 3.58L3.81 3.58L3.81 10.50L5.52 10.50L5.52 6.80C5.52 5.89 6.06 5.07 6.99 5.07C7.92 5.07 8.40 5.89 8.40 6.80L8.40 10.50ZM16.35 0.70L16.35 10.50L18.06 10.50L18.06 6.97C18.06 5.94 18.76 5.08 19.77 5.08C20.68 5.08 21.34 5.61 21.34 6.87L21.34 10.50L23.04 10.50L23.04 6.86C23.04 4.83 22.18 3.50 20.22 3.50C19.43 3.50 18.68 3.74 18.06 4.54L18.06 0.70ZM24.39 3.60L24.39 7.22C24.39 9.37 25.59 10.61 27.24 10.61C28.21 10.61 28.87 10.28 29.58 9.58L29.69 10.51L31.22 10.51L31.22 3.60L29.53 3.60L29.53 7.13C29.53 8.18 28.81 9.06 27.76 9.06C26.67 9.06 26.10 8.26 26.10 7.21L26.10 3.60ZM39.52 10.50L39.52 6.87C39.52 4.70 38.22 3.49 36.60 3.49C35.73 3.49 35.03 3.84 34.33 4.52L34.22 3.58L32.69 3.58L32.69 10.50L34.38 10.50L34.38 6.97C34.38 5.92 35.10 5.04 36.15 5.04C37.24 5.04 37.81 5.84 37.81 6.89L37.81 10.50ZM45.72 3.77C45.25 3.44 44.69 3.37 44.14 3.37C42.21 3.37 40.64 4.72 40.64 6.87C40.64 9.03 41.99 10.35 44.14 10.35C45.00 10.35 45.89 10.78 45.89 11.73C45.89 12.68 45.12 13.22 44.14 13.22C43.16 13.22 42.34 12.63 42.34 11.73L40.64 11.73C40.64 13.59 42.14 14.81 44.14 14.81C46.14 14.81 47.60 13.64 47.60 11.73C47.60 10.85 47.32 10.02 46.17 9.45C47.31 8.93 47.63 7.73 47.63 6.87C47.63 6.12 47.43 5.43 46.90 4.83L47.67 3.85L46.41 2.90ZM44.14 4.93C45.12 4.93 45.93 5.68 45.93 6.87C45.93 8.06 45.12 8.79 44.14 8.79C43.15 8.79 42.34 8.08 42.34 6.87C42.34 5.67 43.15 4.93 44.14 4.93ZM48.72 3.60L48.72 10.50L50.43 10.50L50.43 6.86C50.43 5.59 51.25 5.11 52.15 5.11C52.71 5.11 53.03 5.26 53.38 5.56L54.15 4.07C53.77 3.70 53.09 3.42 52.37 3.42C51.67 3.42 50.96 3.54 50.43 4.40L50.30 3.60ZM60.30 3.60L59.04 6.62L58.32 8.53L57.67 6.58L56.62 3.60L54.63 3.60L57.39 10.39L56.10 13.38L57.97 13.38L62.19 3.60ZM63.04 9.62C63.04 10.95 65.06 10.95 65.06 9.62C65.06 8.29 63.04 8.29 63.04 9.62ZM72.23 4.55C71.83 3.86 70.95 3.43 70.03 3.43C68.01 3.42 66.43 4.66 66.43 7.04C66.43 9.46 67.94 10.72 69.99 10.71C70.76 10.70 71.83 10.30 72.23 9.49L72.31 10.50L73.92 10.50L73.92 3.60L72.28 3.60ZM70.18 4.96C72.87 4.96 72.87 9.14 70.18 9.14C69.05 9.14 68.14 8.36 68.14 7.04C68.14 5.73 69.05 4.96 70.18 4.96ZM79.18 9.02C78.02 9.02 77.22 8.13 77.22 7.06C77.22 5.98 77.95 5.10 79.18 5.10C80.42 5.10 81.14 5.98 81.14 7.06C81.14 8.13 80.35 9.02 79.18 9.02ZM77.07 13.38L77.07 9.69C77.56 10.44 78.64 10.67 79.37 10.67C81.58 10.67 82.85 9.07 82.85 7.06C82.85 5.03 81.44 3.44 79.31 3.44C78.53 3.44 77.60 3.78 77.07 4.55L76.96 3.60L75.36 3.60L75.36 13.38ZM87.93 9.02C86.77 9.02 85.97 8.13 85.97 7.06C85.97 5.98 86.70 5.10 87.93 5.10C89.17 5.10 89.89 5.98 89.89 7.06C89.89 8.13 89.10 9.02 87.93 9.02ZM85.82 13.38L85.82 9.69C86.31 10.44 87.39 10.67 88.12 10.67C90.33 10.67 91.60 9.07 91.60 7.06C91.60 5.03 90.19 3.44 88.06 3.44C87.28 3.44 86.35 3.78 85.82 4.55L85.71 3.60L84.11 3.60L84.11 13.38Z"></path></g><!----><!----></svg>